<?xml version="1.0" encoding="UTF-8"?>
<svg xmlns="http://www.w3.org/2000/svg"
     xmlns:inkscape="http://www.inkscape.org/namespaces/inkscape"
     id="InkscapeMarkers">
  <defs id="defs3">

    <!-- Arrows -->

    <!-- arrow-1-1 -->
    <marker style="overflow:visible" id="arrow-1-1start" refX="0.0" refY="0.0" orient="auto" inkscape:stockid="arrow-1-1start">
      <path transform="scale(1.0) translate(0,0)" d="M.71.508c.782.869 1.342 1.792 1.681 2.77h-.747C.676 1.884-.669.875-2.39.252V-.25C-.67-.874.676-1.883 1.644-3.28h.747c-.339.985-.899 1.912-1.68 2.781V.508z" style="fill-rule:evenodd;stroke-width:0pt"/>
    </marker>
    <marker style="overflow:visible" id="arrow-1-1end" refX="0.0" refY="0.0" orient="auto" inkscape:stockid="arrow-1-1end">
      <path transform="scale(1.0) rotate(180) translate(0,0)" d="M.71.508c.782.869 1.342 1.792 1.681 2.77h-.747C.676 1.884-.669.875-2.39.252V-.25C-.67-.874.676-1.883 1.644-3.28h.747c-.339.985-.899 1.912-1.68 2.781V.508z" style="fill-rule:evenodd;stroke-width:0pt"/>
    </marker>

    <!-- arrow-1-2 -->
    <marker style="overflow:visible" id="arrow-1-2start" refX="0.0" refY="0.0" orient="auto" inkscape:stockid="arrow-1-2start">
      <path transform="scale(1.2) translate(0,0)" d="M.71.508c.782.869 1.342 1.792 1.681 2.77h-.747C.676 1.884-.669.875-2.39.252V-.25C-.67-.874.676-1.883 1.644-3.28h.747c-.339.985-.899 1.912-1.68 2.781V.508z" style="fill-rule:evenodd;stroke-width:0pt"/>
    </marker>
    <marker style="overflow:visible" id="arrow-1-2end" refX="0.0" refY="0.0" orient="auto" inkscape:stockid="arrow-1-2end">
      <path transform="scale(1.2) rotate(180) translate(0,0)" d="M.71.508c.782.869 1.342 1.792 1.681 2.77h-.747C.676 1.884-.669.875-2.39.252V-.25C-.67-.874.676-1.883 1.644-3.28h.747c-.339.985-.899 1.912-1.68 2.781V.508z" style="fill-rule:evenodd;stroke-width:0pt"/>
    </marker>

    <!-- arrow-1-3 -->
    <marker style="overflow:visible" id="arrow-1-3start" refX="0.0" refY="0.0" orient="auto" inkscape:stockid="arrow-1-3start">
      <path transform="scale(1.4) translate(0,0)" d="M.71.508c.782.869 1.342 1.792 1.681 2.77h-.747C.676 1.884-.669.875-2.39.252V-.25C-.67-.874.676-1.883 1.644-3.28h.747c-.339.985-.899 1.912-1.68 2.781V.508z" style="fill-rule:evenodd;stroke-width:0pt"/>
    </marker>
    <marker style="overflow:visible" id="arrow-1-3end" refX="0.0" refY="0.0" orient="auto" inkscape:stockid="arrow-1-3end">
      <path transform="scale(1.4) rotate(180) translate(0,0)" d="M.71.508c.782.869 1.342 1.792 1.681 2.77h-.747C.676 1.884-.669.875-2.39.252V-.25C-.67-.874.676-1.883 1.644-3.28h.747c-.339.985-.899 1.912-1.68 2.781V.508z" style="fill-rule:evenodd;stroke-width:0pt"/>
    </marker>

    <!-- Solid arrows -->

    <!-- solid-arrow-1-1 -->
    <marker style="overflow:visible" id="solid-arrow-1-1start" refX="0.0" refY="0.0" orient="auto" inkscape:stockid="solid-arrow-1-1start">
      <path transform="scale(1.0) translate(0,0)" style="fill-rule:evenodd;stroke:#000000;stroke-width:1.0pt" d="M3-1.6-3 0 3 1.6Z"/>
    </marker>
    <marker style="overflow:visible" id="solid-arrow-1-1end" refX="0.0" refY="0.0" orient="auto" inkscape:stockid="solid-arrow-1-1end">
      <path transform="scale(1.0) rotate(180) translate(0,0)" style="fill-rule:evenodd;stroke:#000000;stroke-width:1.0pt" d="M3-1.6-3 0 3 1.6Z"/>
    </marker>

    <!-- solid-arrow-1-2 -->
    <marker style="overflow:visible" id="solid-arrow-1-2start" refX="0.0" refY="0.0" orient="auto" inkscape:stockid="solid-arrow-1-2start">
      <path transform="scale(1.2) translate(0,0)" style="fill-rule:evenodd;stroke:#000000;stroke-width:1.0pt" d="M3-1.6-3 0 3 1.6Z"/>
    </marker>
    <marker style="overflow:visible" id="solid-arrow-1-2end" refX="0.0" refY="0.0" orient="auto" inkscape:stockid="solid-arrow-1-2end">
      <path transform="scale(1.2) rotate(180) translate(0,0)" style="fill-rule:evenodd;stroke:#000000;stroke-width:1.0pt" d="M3-1.6-3 0 3 1.6Z"/>
    </marker>

    <!-- solid-arrow-1-3 -->
    <marker style="overflow:visible" id="solid-arrow-1-3start" refX="0.0" refY="0.0" orient="auto" inkscape:stockid="solid-arrow-1-3start">
      <path transform="scale(1.4) translate(0,0)" style="fill-rule:evenodd;stroke:#000000;stroke-width:1.0pt" d="M3-1.6-3 0 3 1.6Z"/>
    </marker>
    <marker style="overflow:visible" id="solid-arrow-1-3end" refX="0.0" refY="0.0" orient="auto" inkscape:stockid="solid-arrow-1-3end">
      <path transform="scale(1.4) rotate(180) translate(0,0)" style="fill-rule:evenodd;stroke:#000000;stroke-width:1.0pt" d="M3-1.6-3 0 3 1.6Z"/>
    </marker>

    <!-- solid-arrow-2-1 -->
    <marker style="overflow:visible" id="solid-arrow-2-1start" refX="0.0" refY="0.0" orient="auto" inkscape:stockid="solid-arrow-2-1start">
      <path transform="scale(1.0) translate(0,0)" style="fill-rule:evenodd;stroke-width:0pt" d="M.176 1.014c1.628.492 2.682.943 3.988 1.466l-.003-4.96c-.468.223-2.36.977-3.988 1.469-1.74.525-3.314.885-4.337 1.011 1.023.131 2.6.491 4.337 1.014"/>
    </marker>
    <marker style="overflow:visible" id="solid-arrow-2-1end" refX="0.0" refY="0.0" orient="auto" inkscape:stockid="solid-arrow-2-1end">
      <path transform="scale(1.0) rotate(180) translate(0,0)" style="fill-rule:evenodd;stroke-width:0pt" d="M.176 1.014c1.628.492 2.682.943 3.988 1.466l-.003-4.96c-.468.223-2.36.977-3.988 1.469-1.74.525-3.314.885-4.337 1.011 1.023.131 2.6.491 4.337 1.014"/>
    </marker>

    <!-- solid-arrow-2-2 -->
    <marker style="overflow:visible" id="solid-arrow-2-2start" refX="0.0" refY="0.0" orient="auto" inkscape:stockid="solid-arrow-2-2start">
      <path transform="scale(1.2) translate(0,0)" style="fill-rule:evenodd;stroke-width:0pt" d="M.176 1.014c1.628.492 2.682.943 3.988 1.466l-.003-4.96c-.468.223-2.36.977-3.988 1.469-1.74.525-3.314.885-4.337 1.011 1.023.131 2.6.491 4.337 1.014"/>
    </marker>
    <marker style="overflow:visible" id="solid-arrow-2-2end" refX="0.0" refY="0.0" orient="auto" inkscape:stockid="solid-arrow-2-2end">
      <path transform="scale(1.2) rotate(180) translate(0,0)" style="fill-rule:evenodd;stroke-width:0pt" d="M.176 1.014c1.628.492 2.682.943 3.988 1.466l-.003-4.96c-.468.223-2.36.977-3.988 1.469-1.74.525-3.314.885-4.337 1.011 1.023.131 2.6.491 4.337 1.014"/>
    </marker>

    <!-- solid-arrow-2-3 -->
    <marker style="overflow:visible" id="solid-arrow-2-3start" refX="0.0" refY="0.0" orient="auto" inkscape:stockid="solid-arrow-2-3start">
      <path transform="scale(1.4) translate(0,0)" style="fill-rule:evenodd;stroke-width:0pt" d="M.176 1.014c1.628.492 2.682.943 3.988 1.466l-.003-4.96c-.468.223-2.36.977-3.988 1.469-1.74.525-3.314.885-4.337 1.011 1.023.131 2.6.491 4.337 1.014"/>
    </marker>
    <marker style="overflow:visible" id="solid-arrow-2-3end" refX="0.0" refY="0.0" orient="auto" inkscape:stockid="solid-arrow-2-3end">
      <path transform="scale(1.4) rotate(180) translate(0,0)" style="fill-rule:evenodd;stroke-width:0pt" d="M.176 1.014c1.628.492 2.682.943 3.988 1.466l-.003-4.96c-.468.223-2.36.977-3.988 1.469-1.74.525-3.314.885-4.337 1.011 1.023.131 2.6.491 4.337 1.014"/>
    </marker>

  </defs>
</svg>
