<?xml version="1.0" encoding="UTF-8"?>
<svg xmlns="http://www.w3.org/2000/svg"
     xmlns:inkscape="http://www.inkscape.org/namespaces/inkscape"
     id="InkscapeMarkers">
  <defs id="defs3">

    <!-- Asymptote arrowheads -->

    <!-- texhead -->
    <marker style="overflow:visible" id="asy-texhead-start" refX="0.0" refY="0.0" orient="auto" inkscape:stockid="asy-texhead-start">
      <path transform="scale(1.0) translate(0.32,0)" d="m-0.3 0.499c1.87 1.38 2.7 3.45 2.7 3.65 0 0.226-0.2 0.3-0.375 0.3-0.275 0-0.325-0.125-0.4-0.25-0.375-0.85-1.17-2.68-3.68-3.85-0.3-0.149-0.35-0.174-0.35-0.349s0.05-0.201 0.35-0.349c2.5-1.18 3.3-3 3.68-3.85 0.075-0.125 0.125-0.25 0.4-0.25 0.175 0 0.375 0.0744 0.375 0.3 0 0.199-0.825 2.27-2.7 3.65z" style="fill-rule:evenodd;stroke-width:0pt"/>
    </marker>
    <marker style="overflow:visible" id="asy-texhead-end" refX="0.0" refY="0.0" orient="auto" inkscape:stockid="asy-texhead-end">
      <path transform="scale(1.0) rotate(180) translate(0.32,0)" d="m-0.3 0.499c1.87 1.38 2.7 3.45 2.7 3.65 0 0.226-0.2 0.3-0.375 0.3-0.275 0-0.325-0.125-0.4-0.25-0.375-0.85-1.17-2.68-3.68-3.85-0.3-0.149-0.35-0.174-0.35-0.349s0.05-0.201 0.35-0.349c2.5-1.18 3.3-3 3.68-3.85 0.075-0.125 0.125-0.25 0.4-0.25 0.175 0 0.375 0.0744 0.375 0.3 0 0.199-0.825 2.27-2.7 3.65z" style="fill-rule:evenodd;stroke-width:0pt"/>
    </marker>

    <!-- simplehead -->
    <marker style="overflow:visible" id="asy-simplehead-start" refX="0.0" refY="0.0" orient="auto" inkscape:stockid="asy-simplehead-start">
      <path transform="scale(1.0) translate(5.33,0)" d="m7.24 3.88-14.5-3.88v0l14.5-3.88" style="fill:none;stroke-linecap:round;stroke-linejoin:round;stroke:#000;stroke-width:1px"/>
    </marker>
    <marker style="overflow:visible" id="asy-simplehead-end" refX="0.0" refY="0.0" orient="auto" inkscape:stockid="asy-simplehead-end">
      <path transform="scale(1.0) rotate(180) translate(5.33,0)" d="m7.24 3.88-14.5-3.88v0l14.5-3.88" style="fill:none;stroke-linecap:round;stroke-linejoin:round;stroke:#000;stroke-width:1px"/>
    </marker>

    <!-- hookhead -->
    <marker style="overflow:visible" id="asy-hookhead-start" refX="0.0" refY="0.0" orient="auto" inkscape:stockid="asy-hookhead-start">
      <path transform="scale(1.0) translate(0,0)" d="m-9.5-2.68e-4c6.73 0.588 13.2 2.71 19 6.21l-4-6.21v0l4-6.21c-5.77 3.5-12.3 5.62-19 6.21z" style="stroke-linecap:round;stroke-linejoin:round;stroke:#000;stroke-width:1px;fill-rule:evenodd"/>
    </marker>
    <marker style="overflow:visible" id="asy-hookhead-end" refX="0.0" refY="0.0" orient="auto" inkscape:stockid="asy-hookhead-end">
      <path transform="scale(1.0) rotate(180) translate(0,0)" d="m-9.5-2.68e-4c6.73 0.588 13.2 2.71 19 6.21l-4-6.21v0l4-6.21c-5.77 3.5-12.3 5.62-19 6.21z" style="stroke-linecap:round;stroke-linejoin:round;stroke:#000;stroke-width:1px;fill-rule:evenodd"/>
    </marker>

    <!-- defaulthead -->
    <marker style="overflow:visible" id="asy-defaulthead-start" refX="0.0" refY="0.0" orient="auto" inkscape:stockid="asy-defaulthead-start">
      <path transform="scale(1.0) translate(0,0)" d="m-7.5 1.7e-7 15 4.02v-8.04z" style="fill-rule:evenodd;stroke-width:1px;stroke-linecap:round;stroke-linejoin:round;stroke:#000"/>
    </marker>
    <marker style="overflow:visible" id="asy-defaulthead-end" refX="0.0" refY="0.0" orient="auto" inkscape:stockid="asy-defaulthead-end">
      <path transform="scale(1.0) rotate(180) translate(0,0)" d="m-7.5 1.7e-7 15 4.02v-8.04z" style="fill-rule:evenodd;stroke-width:1px;stroke-linecap:round;stroke-linejoin:round;stroke:#000"/>
    </marker>

    <!-- Arrows -->

    <!-- arrow-1-1 -->
    <marker style="overflow:visible" id="arrow-1-1start" refX="0.0" refY="0.0" orient="auto" inkscape:stockid="arrow-1-1start">
      <path transform="scale(1.0) translate(0,0)" d="M.71.508c.782.869 1.342 1.792 1.681 2.77h-.747C.676 1.884-.669.875-2.39.252V-.25C-.67-.874.676-1.883 1.644-3.28h.747c-.339.985-.899 1.912-1.68 2.781V.508z" style="fill-rule:evenodd;stroke-width:0pt"/>
    </marker>
    <marker style="overflow:visible" id="arrow-1-1end" refX="0.0" refY="0.0" orient="auto" inkscape:stockid="arrow-1-1end">
      <path transform="scale(1.0) rotate(180) translate(0,0)" d="M.71.508c.782.869 1.342 1.792 1.681 2.77h-.747C.676 1.884-.669.875-2.39.252V-.25C-.67-.874.676-1.883 1.644-3.28h.747c-.339.985-.899 1.912-1.68 2.781V.508z" style="fill-rule:evenodd;stroke-width:0pt"/>
    </marker>

    <!-- arrow-1-2 -->
    <marker style="overflow:visible" id="arrow-1-2start" refX="0.0" refY="0.0" orient="auto" inkscape:stockid="arrow-1-2start">
      <path transform="scale(1.25) translate(0,0)" d="M.71.508c.782.869 1.342 1.792 1.681 2.77h-.747C.676 1.884-.669.875-2.39.252V-.25C-.67-.874.676-1.883 1.644-3.28h.747c-.339.985-.899 1.912-1.68 2.781V.508z" style="fill-rule:evenodd;stroke-width:0pt"/>
    </marker>
    <marker style="overflow:visible" id="arrow-1-2end" refX="0.0" refY="0.0" orient="auto" inkscape:stockid="arrow-1-2end">
      <path transform="scale(1.25) rotate(180) translate(0,0)" d="M.71.508c.782.869 1.342 1.792 1.681 2.77h-.747C.676 1.884-.669.875-2.39.252V-.25C-.67-.874.676-1.883 1.644-3.28h.747c-.339.985-.899 1.912-1.68 2.781V.508z" style="fill-rule:evenodd;stroke-width:0pt"/>
    </marker>

    <!-- arrow-1-3 -->
    <marker style="overflow:visible" id="arrow-1-3start" refX="0.0" refY="0.0" orient="auto" inkscape:stockid="arrow-1-3start">
      <path transform="scale(1.5) translate(0,0)" d="M.71.508c.782.869 1.342 1.792 1.681 2.77h-.747C.676 1.884-.669.875-2.39.252V-.25C-.67-.874.676-1.883 1.644-3.28h.747c-.339.985-.899 1.912-1.68 2.781V.508z" style="fill-rule:evenodd;stroke-width:0pt"/>
    </marker>
    <marker style="overflow:visible" id="arrow-1-3end" refX="0.0" refY="0.0" orient="auto" inkscape:stockid="arrow-1-3end">
      <path transform="scale(1.5) rotate(180) translate(0,0)" d="M.71.508c.782.869 1.342 1.792 1.681 2.77h-.747C.676 1.884-.669.875-2.39.252V-.25C-.67-.874.676-1.883 1.644-3.28h.747c-.339.985-.899 1.912-1.68 2.781V.508z" style="fill-rule:evenodd;stroke-width:0pt"/>
    </marker>

    <!-- bar-arrow-1-1 -->
    <marker style="overflow:visible" id="bar-arrow-1-1start" refX="0.0" refY="0.0" orient="auto" inkscape:stockid="bar-arrow-1-1start">
      <path transform="scale(1.0) translate(0,0)" d="m-3.39-3.28v6.56h1v-3.03c1.72 0.623 3.07 1.63 4.04 3.03h0.746c-0.339-0.978-0.898-1.9-1.68-2.77v-1.01c0.781-0.869 1.34-1.8 1.68-2.78h-0.746c-0.968 1.4-2.32 2.41-4.04 3.03v-3.03h-1z" style="fill-rule:evenodd;stroke-width:0pt"/>
    </marker>
    <marker style="overflow:visible" id="bar-arrow-1-1end" refX="0.0" refY="0.0" orient="auto" inkscape:stockid="bar-arrow-1-1end">
      <path transform="scale(1.0) rotate(180) translate(0,0)" d="m-3.39-3.28v6.56h1v-3.03c1.72 0.623 3.07 1.63 4.04 3.03h0.746c-0.339-0.978-0.898-1.9-1.68-2.77v-1.01c0.781-0.869 1.34-1.8 1.68-2.78h-0.746c-0.968 1.4-2.32 2.41-4.04 3.03v-3.03h-1z" style="fill-rule:evenodd;stroke-width:0pt"/>
    </marker>

    <!-- bar-arrow-1-2 -->
    <marker style="overflow:visible" id="bar-arrow-1-2start" refX="0.0" refY="0.0" orient="auto" inkscape:stockid="bar-arrow-1-2start">
      <path transform="scale(1.25) translate(0,0)" d="m-3.39-3.28v6.56h1v-3.03c1.72 0.623 3.07 1.63 4.04 3.03h0.746c-0.339-0.978-0.898-1.9-1.68-2.77v-1.01c0.781-0.869 1.34-1.8 1.68-2.78h-0.746c-0.968 1.4-2.32 2.41-4.04 3.03v-3.03h-1z" style="fill-rule:evenodd;stroke-width:0pt"/>
    </marker>
    <marker style="overflow:visible" id="bar-arrow-1-2end" refX="0.0" refY="0.0" orient="auto" inkscape:stockid="bar-arrow-1-2end">
      <path transform="scale(1.25) rotate(180) translate(0,0)" d="m-3.39-3.28v6.56h1v-3.03c1.72 0.623 3.07 1.63 4.04 3.03h0.746c-0.339-0.978-0.898-1.9-1.68-2.77v-1.01c0.781-0.869 1.34-1.8 1.68-2.78h-0.746c-0.968 1.4-2.32 2.41-4.04 3.03v-3.03h-1z" style="fill-rule:evenodd;stroke-width:0pt"/>
    </marker>

    <!-- bar-arrow-1-3 -->
    <marker style="overflow:visible" id="bar-arrow-1-3start" refX="0.0" refY="0.0" orient="auto" inkscape:stockid="bar-arrow-1-3start">
      <path transform="scale(1.5) translate(0,0)" d="m-3.39-3.28v6.56h1v-3.03c1.72 0.623 3.07 1.63 4.04 3.03h0.746c-0.339-0.978-0.898-1.9-1.68-2.77v-1.01c0.781-0.869 1.34-1.8 1.68-2.78h-0.746c-0.968 1.4-2.32 2.41-4.04 3.03v-3.03h-1z" style="fill-rule:evenodd;stroke-width:0pt"/>
    </marker>
    <marker style="overflow:visible" id="bar-arrow-1-3end" refX="0.0" refY="0.0" orient="auto" inkscape:stockid="bar-arrow-1-3end">
      <path transform="scale(1.5) rotate(180) translate(0,0)" d="m-3.39-3.28v6.56h1v-3.03c1.72 0.623 3.07 1.63 4.04 3.03h0.746c-0.339-0.978-0.898-1.9-1.68-2.77v-1.01c0.781-0.869 1.34-1.8 1.68-2.78h-0.746c-0.968 1.4-2.32 2.41-4.04 3.03v-3.03h-1z" style="fill-rule:evenodd;stroke-width:0pt"/>
    </marker>

    <!-- Solid arrows -->

    <!-- solid-arrow-1-1 -->
    <marker style="overflow:visible" id="solid-arrow-1-1start" refX="0.0" refY="0.0" orient="auto" inkscape:stockid="solid-arrow-1-1start">
      <path transform="scale(1.0) translate(0,0)" style="fill-rule:evenodd;stroke:#000000;stroke-width:1.0pt" d="M3-1.6-3 0 3 1.6Z"/>
    </marker>
    <marker style="overflow:visible" id="solid-arrow-1-1end" refX="0.0" refY="0.0" orient="auto" inkscape:stockid="solid-arrow-1-1end">
      <path transform="scale(1.0) rotate(180) translate(0,0)" style="fill-rule:evenodd;stroke:#000000;stroke-width:1.0pt" d="M3-1.6-3 0 3 1.6Z"/>
    </marker>

    <!-- solid-arrow-1-2 -->
    <marker style="overflow:visible" id="solid-arrow-1-2start" refX="0.0" refY="0.0" orient="auto" inkscape:stockid="solid-arrow-1-2start">
      <path transform="scale(1.25) translate(0,0)" style="fill-rule:evenodd;stroke:#000000;stroke-width:1.0pt" d="M3-1.6-3 0 3 1.6Z"/>
    </marker>
    <marker style="overflow:visible" id="solid-arrow-1-2end" refX="0.0" refY="0.0" orient="auto" inkscape:stockid="solid-arrow-1-2end">
      <path transform="scale(1.25) rotate(180) translate(0,0)" style="fill-rule:evenodd;stroke:#000000;stroke-width:1.0pt" d="M3-1.6-3 0 3 1.6Z"/>
    </marker>

    <!-- solid-arrow-1-3 -->
    <marker style="overflow:visible" id="solid-arrow-1-3start" refX="0.0" refY="0.0" orient="auto" inkscape:stockid="solid-arrow-1-3start">
      <path transform="scale(1.5) translate(0,0)" style="fill-rule:evenodd;stroke:#000000;stroke-width:1.0pt" d="M3-1.6-3 0 3 1.6Z"/>
    </marker>
    <marker style="overflow:visible" id="solid-arrow-1-3end" refX="0.0" refY="0.0" orient="auto" inkscape:stockid="solid-arrow-1-3end">
      <path transform="scale(1.5) rotate(180) translate(0,0)" style="fill-rule:evenodd;stroke:#000000;stroke-width:1.0pt" d="M3-1.6-3 0 3 1.6Z"/>
    </marker>

    <!-- solid-arrow-2-1 -->
    <marker style="overflow:visible" id="solid-arrow-2-1start" refX="0.0" refY="0.0" orient="auto" inkscape:stockid="solid-arrow-2-1start">
      <path transform="scale(1.0) translate(0,0)" style="fill-rule:evenodd;stroke-width:0pt" d="M.176 1.014c1.628.492 2.682.943 3.988 1.466l-.003-4.96c-.468.223-2.36.977-3.988 1.469-1.74.525-3.314.885-4.337 1.011 1.023.131 2.6.491 4.337 1.014"/>
    </marker>
    <marker style="overflow:visible" id="solid-arrow-2-1end" refX="0.0" refY="0.0" orient="auto" inkscape:stockid="solid-arrow-2-1end">
      <path transform="scale(1.0) rotate(180) translate(0,0)" style="fill-rule:evenodd;stroke-width:0pt" d="M.176 1.014c1.628.492 2.682.943 3.988 1.466l-.003-4.96c-.468.223-2.36.977-3.988 1.469-1.74.525-3.314.885-4.337 1.011 1.023.131 2.6.491 4.337 1.014"/>
    </marker>

    <!-- solid-arrow-2-2 -->
    <marker style="overflow:visible" id="solid-arrow-2-2start" refX="0.0" refY="0.0" orient="auto" inkscape:stockid="solid-arrow-2-2start">
      <path transform="scale(1.25) translate(0,0)" style="fill-rule:evenodd;stroke-width:0pt" d="M.176 1.014c1.628.492 2.682.943 3.988 1.466l-.003-4.96c-.468.223-2.36.977-3.988 1.469-1.74.525-3.314.885-4.337 1.011 1.023.131 2.6.491 4.337 1.014"/>
    </marker>
    <marker style="overflow:visible" id="solid-arrow-2-2end" refX="0.0" refY="0.0" orient="auto" inkscape:stockid="solid-arrow-2-2end">
      <path transform="scale(1.25) rotate(180) translate(0,0)" style="fill-rule:evenodd;stroke-width:0pt" d="M.176 1.014c1.628.492 2.682.943 3.988 1.466l-.003-4.96c-.468.223-2.36.977-3.988 1.469-1.74.525-3.314.885-4.337 1.011 1.023.131 2.6.491 4.337 1.014"/>
    </marker>

    <!-- solid-arrow-2-3 -->
    <marker style="overflow:visible" id="solid-arrow-2-3start" refX="0.0" refY="0.0" orient="auto" inkscape:stockid="solid-arrow-2-3start">
      <path transform="scale(1.5) translate(0,0)" style="fill-rule:evenodd;stroke-width:0pt" d="M.176 1.014c1.628.492 2.682.943 3.988 1.466l-.003-4.96c-.468.223-2.36.977-3.988 1.469-1.74.525-3.314.885-4.337 1.011 1.023.131 2.6.491 4.337 1.014"/>
    </marker>
    <marker style="overflow:visible" id="solid-arrow-2-3end" refX="0.0" refY="0.0" orient="auto" inkscape:stockid="solid-arrow-2-3end">
      <path transform="scale(1.5) rotate(180) translate(0,0)" style="fill-rule:evenodd;stroke-width:0pt" d="M.176 1.014c1.628.492 2.682.943 3.988 1.466l-.003-4.96c-.468.223-2.36.977-3.988 1.469-1.74.525-3.314.885-4.337 1.011 1.023.131 2.6.491 4.337 1.014"/>
    </marker>

  </defs>
</svg>
