<?xml version="1.0" encoding="UTF-8"?>
<!--
  Asymptote arrowhead "TeXHead".  This arrowhead has to be
  translated by (0.32, 0) so that the gap between the
  arrowhead and the curve disappears.
-->
<svg width="20" height="10" xmlns="http://www.w3.org/2000/svg">
  <path d="m-0.3 0.499c1.87 1.38 2.7 3.45 2.7 3.65 0 0.226-0.2 0.3-0.375 0.3-0.275 0-0.325-0.125-0.4-0.25-0.375-0.85-1.17-2.68-3.68-3.85-0.3-0.149-0.35-0.174-0.35-0.349s0.05-0.201 0.35-0.349c2.5-1.18 3.3-3 3.68-3.85 0.075-0.125 0.125-0.25 0.4-0.25 0.175 0 0.375 0.0744 0.375 0.3 0 0.199-0.825 2.27-2.7 3.65z" style="fill-rule:evenodd;stroke-width:0pt"/>
</svg>
